<?xml version="1.0" standalone="no"?><!DOCTYPE svg PUBLIC "-//W3C//DTD SVG 1.1//EN" "http://www.w3.org/Graphics/SVG/1.1/DTD/svg11.dtd"><svg t="1624980874798" class="icon" viewBox="0 0 1024 1024" version="1.1" xmlns="http://www.w3.org/2000/svg" p-id="1322" xmlns:xlink="http://www.w3.org/1999/xlink" width="200" height="200"><defs><style type="text/css"></style></defs><path d="M512 0a512 512 0 1 0 512 512A512 512 0 0 0 512 0zM336.842 794.947a121.263 121.263 0 1 1 121.263-121.263 121.263 121.263 0 0 1-121.263 121.263z m74.105-393.97l17.516 97.55-91.62-46.08-91.622 46.08 17.516-97.55-74.105-68.985 102.4-14.283 45.81-88.656 45.81 88.656 102.4 14.283z m128-158.45h242.527v242.526H538.947z m121.264 552.42H525.474l67.368-121.263 67.369-121.263 67.368 121.263 67.368 121.263z" fill="#B71C1C" p-id="1323"></path></svg>