<?xml version="1.0" standalone="no"?><!DOCTYPE svg PUBLIC "-//W3C//DTD SVG 1.1//EN" "http://www.w3.org/Graphics/SVG/1.1/DTD/svg11.dtd"><svg t="1646917569351" class="icon" viewBox="0 0 1024 1024" version="1.1" xmlns="http://www.w3.org/2000/svg" p-id="47199" xmlns:xlink="http://www.w3.org/1999/xlink" width="1024" height="1024"><defs><style type="text/css"></style></defs><path d="M813.4656 129.6384 210.5344 129.6384C165.888 129.6384 129.6384 165.888 129.6384 210.5344l0 602.9312c0 44.6464 36.2496 80.896 80.896 80.896l602.9312 0c44.6464 0 80.896-36.2496 80.896-80.896L894.3616 210.5344C894.3616 165.888 858.112 129.6384 813.4656 129.6384zM564.4288 248.2176 780.288 248.2176l0 215.6544L564.4288 463.872 564.4288 248.2176zM346.5216 793.6c-67.3792 0-122.2656-54.6816-122.2656-122.2656 0-67.3792 54.6816-122.2656 122.2656-122.2656 67.3792 0 122.2656 54.6816 122.2656 122.2656C468.7872 738.7136 414.1056 793.6 346.5216 793.6zM417.9968 390.7584l16.7936 98.5088-88.4736-46.4896L258.048 489.2672l16.7936-98.5088-71.4752-69.632 98.9184-14.336 44.2368-89.4976 44.2368 89.4976 98.9184 14.336L417.9968 390.7584zM534.3232 789.504l138.0352-239.0016 138.0352 239.0016L534.3232 789.504z" p-id="47200" fill="#B71C1C"></path></svg>